<svg width="59" height="59" viewBox="0 0 59 59" fill="none" xmlns="http://www.w3.org/2000/svg">
<circle cx="29.5" cy="29.5" r="28.5" stroke="black" stroke-width="2"/>
<path d="M40.8 29.5C40.7999 29.752 40.6999 29.9936 40.5217 30.1717C40.3435 30.3499 40.1019 30.45 39.85 30.45H21.2435L28.1717 37.3782C28.26 37.4664 28.3299 37.5711 28.3777 37.6864C28.4254 37.8016 28.45 37.9252 28.45 38.0499C28.45 38.1747 28.4255 38.2982 28.3777 38.4135C28.33 38.5288 28.26 38.6335 28.1718 38.7217C28.0836 38.8099 27.9788 38.8799 27.8636 38.9277C27.7483 38.9754 27.6248 39 27.5 39C27.3753 39 27.2517 38.9754 27.1365 38.9277C27.0212 38.88 26.9165 38.81 26.8283 38.7218L18.2783 30.1718C18.1901 30.0836 18.1201 29.9788 18.0723 29.8636C18.0246 29.7483 18 29.6248 18 29.5C18 29.3752 18.0246 29.2517 18.0723 29.1364C18.1201 29.0212 18.1901 28.9164 18.2783 28.8282L26.8283 20.2782C27.0064 20.1001 27.2481 20 27.5 20C27.752 20 27.9936 20.1001 28.1718 20.2783C28.3499 20.4565 28.45 20.6981 28.45 20.9501C28.45 21.202 28.3499 21.4437 28.1717 21.6218L21.2435 28.55H39.85C40.1019 28.55 40.3435 28.6501 40.5217 28.8283C40.6999 29.0064 40.7999 29.248 40.8 29.5Z" fill="#030303"/>
</svg>
