<svg width="10" height="5" viewBox="0 0 10 5" fill="none" xmlns="http://www.w3.org/2000/svg">
<path d="M9.92609 3.05406C9.96156 3.11542 9.98459 3.18316 9.99387 3.25342C10.0031 3.32368 9.99849 3.39507 9.98016 3.46353C9.96184 3.53199 9.93021 3.59616 9.88707 3.65239C9.84394 3.70862 9.79015 3.7558 9.72877 3.79123C9.6674 3.82666 9.59965 3.84966 9.52938 3.8589C9.45912 3.86814 9.38773 3.86344 9.31928 3.84508C9.25083 3.82672 9.18667 3.79505 9.13047 3.75189C9.07426 3.70872 9.02711 3.65491 8.99171 3.59352L8.25999 2.32617C7.8475 2.58339 7.40386 2.78689 6.93982 2.93171L7.17313 4.25479C7.18543 4.32456 7.18387 4.39606 7.16854 4.46522C7.15321 4.53438 7.12441 4.59985 7.08377 4.65788C7.04314 4.71591 6.99148 4.76536 6.93174 4.80343C6.87199 4.84149 6.80533 4.86742 6.73557 4.87972C6.66581 4.89202 6.5943 4.89046 6.52514 4.87513C6.45598 4.8598 6.39051 4.831 6.33249 4.79037C6.27446 4.74974 6.225 4.69807 6.18693 4.63833C6.14887 4.57858 6.12295 4.51193 6.11064 4.44216L5.88349 3.15403C5.39156 3.21196 4.89453 3.2118 4.40264 3.15355L4.17554 4.44159C4.1507 4.58249 4.0709 4.70774 3.9537 4.7898C3.83651 4.87185 3.69151 4.904 3.55062 4.87915C3.40972 4.8543 3.28447 4.7745 3.20241 4.65731C3.12035 4.54011 3.08821 4.39512 3.11306 4.25422L3.34645 2.93055C2.88307 2.78555 2.44007 2.58204 2.02819 2.32494L1.29167 3.60063C1.22009 3.72445 1.10227 3.81479 0.96411 3.85177C0.825949 3.88875 0.678758 3.86936 0.554894 3.79784C0.43103 3.72633 0.340634 3.60856 0.303578 3.47042C0.266522 3.33228 0.28584 3.18508 0.357285 3.06118L1.15995 1.67093C0.889342 1.42703 0.638514 1.16203 0.409832 0.878435C0.365314 0.823332 0.332085 0.76 0.312043 0.692055C0.292001 0.62411 0.285537 0.552883 0.293022 0.48244C0.300507 0.411997 0.321793 0.343718 0.355665 0.281502C0.389537 0.219285 0.435332 0.16435 0.490435 0.119832C0.601721 0.0299232 0.744165 -0.0120948 0.886431 0.00302119C0.956873 0.0105059 1.02515 0.0317921 1.08737 0.0656644C1.14959 0.0995366 1.20452 0.145332 1.24904 0.200435C1.95597 1.07542 3.20569 2.11845 5.14509 2.11845C7.08445 2.11845 8.33417 1.07542 9.0411 0.200435C9.08562 0.145332 9.14055 0.0995366 9.20277 0.0656644C9.26499 0.0317921 9.33327 0.0105059 9.40371 0.00302119C9.47415 -0.00446349 9.54538 0.00199982 9.61332 0.0220422C9.68127 0.0420845 9.7446 0.0753135 9.7997 0.119832C9.85481 0.16435 9.9006 0.219285 9.93447 0.281502C9.96835 0.343718 9.98963 0.411997 9.99712 0.48244C10.0046 0.552883 9.99814 0.62411 9.9781 0.692055C9.95805 0.76 9.92482 0.823332 9.88031 0.878435C9.65114 1.16265 9.39973 1.42818 9.12844 1.67251L9.92609 3.05406Z" fill="#393939"/>
</svg>
