<svg width="26" height="26" viewBox="0 0 26 26" fill="none" xmlns="http://www.w3.org/2000/svg">
<circle cx="12" cy="14" r="11" fill="white" stroke="#EDEDED" stroke-width="2"/>
<path d="M17.8046 13.7863C17.7873 13.7474 17.3696 12.8207 16.4405 11.8916C15.2032 10.6541 13.6397 10 11.9193 10C10.1989 10 8.6354 10.6541 7.39807 11.8916C6.46903 12.8207 6.05134 13.7474 6.034 13.7863C6.01158 13.8368 6 13.8914 6 13.9466C6 14.0018 6.01158 14.0564 6.034 14.1069C6.05134 14.1459 6.46908 15.0723 7.39812 16.0012C8.63545 17.2384 10.1989 17.8924 11.9193 17.8924C13.6397 17.8924 15.2031 17.2384 16.4405 16.0012C17.3695 15.0723 17.7873 14.1459 17.8046 14.1069C17.827 14.0564 17.8386 14.0018 17.8386 13.9466C17.8386 13.8914 17.827 13.8368 17.8046 13.7863ZM11.9193 12.1708C12.2705 12.1708 12.6138 12.275 12.9059 12.4701C13.1979 12.6652 13.4255 12.9426 13.5599 13.2671C13.6943 13.5916 13.7295 13.9486 13.661 14.2931C13.5924 14.6375 13.4233 14.954 13.175 15.2023C12.9266 15.4507 12.6102 15.6198 12.2657 15.6883C11.9213 15.7568 11.5642 15.7217 11.2397 15.5873C10.9152 15.4529 10.6379 15.2252 10.4428 14.9332C10.2477 14.6412 10.1435 14.2979 10.1435 13.9466C10.144 13.4758 10.3313 13.0245 10.6642 12.6915C10.9971 12.3586 11.4485 12.1714 11.9193 12.1708Z" fill="#393939"/>
<path d="M24 14C24 7.37258 18.6274 2 12 2" stroke="#D52B1E" stroke-width="4"/>
</svg>
