<svg width="23" height="23" viewBox="0 0 23 23" fill="none" xmlns="http://www.w3.org/2000/svg">
<path d="M0 1.64748C0 0.738125 0.761304 0 1.69977 0H21.2993C22.2381 0 22.999 0.738125 22.999 1.64748V21.3518C22.999 22.2614 22.2381 22.999 21.2993 22.999H1.69977C0.761393 22.999 0 22.2615 0 21.3521V1.64722V1.64748Z" fill="white"/>
<path d="M6.98923 19.247V8.89272H3.54765V19.247H6.98959H6.98923ZM5.26916 7.47927C6.46906 7.47927 7.21608 6.68419 7.21608 5.69056C7.19362 4.67429 6.46906 3.9014 5.29198 3.9014C4.11409 3.9014 3.34479 4.67429 3.34479 5.69047C3.34479 6.6841 4.09154 7.47918 5.24661 7.47918H5.26889L5.26916 7.47927ZM8.8942 19.247H12.3355V13.4653C12.3355 13.1563 12.358 12.8464 12.4489 12.6257C12.6976 12.0071 13.2638 11.3668 14.2148 11.3668C15.4598 11.3668 15.9581 12.3163 15.9581 13.7083V19.247H19.3994V13.3102C19.3994 10.1299 17.7017 8.64998 15.4375 8.64998C13.5811 8.64998 12.7659 9.68754 12.3129 10.3942H12.3358V8.89308H8.89438C8.9393 9.86443 8.89411 19.2473 8.89411 19.2473L8.8942 19.247Z" fill="#0A66C2"/>
</svg>
