<svg width="182" height="30" viewBox="0 0 182 30" fill="none" xmlns="http://www.w3.org/2000/svg">
<g clip-path="url(#clip0_1_9614)">
<path d="M16.3253 20.1438C14.9722 23.2549 13.5917 24.4087 13.5917 24.4087C12.4467 25.5733 11.0826 26.1556 9.49937 26.1556C7.91614 26.1556 6.59039 25.6057 5.47282 24.5058C4.35525 23.4058 3.79646 22.0848 3.79646 20.5428C3.79646 19.0007 4.35525 17.6636 5.47282 16.569C6.59039 15.4745 7.93258 14.9299 9.49937 14.9299C11.0662 14.9299 12.4576 15.5068 13.5917 16.6553L16.3089 13.9648C14.3641 12.11 12.0961 11.188 9.50485 11.188C6.91361 11.188 4.65108 12.0992 2.78845 13.9216C0.931311 15.7441 0 17.9493 0 20.5374C0 23.1255 0.931311 25.3145 2.78845 27.1477C4.6456 28.9756 6.88622 29.8922 9.50485 29.8922C12.1235 29.8922 14.397 28.9594 16.3253 27.0938C17.5141 26.0963 19.6397 22.2735 19.6397 22.2735L16.3253 20.1384V20.1438Z" fill="#1E1919"/>
<path d="M36.1894 20.5913C36.1894 23.1955 35.258 25.4116 33.3954 27.2448C31.5328 29.078 29.2757 29.9946 26.6352 29.9946C23.9947 29.9946 21.7376 29.078 19.875 27.2448C18.0124 25.4116 17.0811 23.1955 17.0811 20.5913C17.0811 17.9871 18.0124 15.771 19.875 13.9378C21.7376 12.1046 23.9892 11.188 26.6352 11.188C29.2812 11.188 31.5328 12.1046 33.3954 13.9378C35.258 15.771 36.1894 17.9924 36.1894 20.5913ZM31.1712 20.5913C31.1712 19.3512 30.7275 18.2998 29.8455 17.4263C28.9635 16.5582 27.8897 16.1215 26.6297 16.1215C25.3697 16.1215 24.3015 16.5582 23.414 17.4263C22.532 18.2944 22.0882 19.3512 22.0882 20.5913C22.0882 21.8314 22.532 22.8828 23.414 23.7563C24.296 24.6244 25.3697 25.0611 26.6297 25.0611C27.8897 25.0611 28.958 24.6244 29.8455 23.7563C30.7275 22.8882 31.1712 21.8314 31.1712 20.5913Z" fill="#1E1919"/>
<path d="M42.5718 29.5255H37.5537V0H42.5718V29.5255Z" fill="#1E1919"/>
<path d="M49.4302 29.5255H44.4121V0H49.4302V29.5255Z" fill="#1E1919"/>
<path d="M69.936 29.5255H64.9178V28.3016C63.9153 29.4285 62.2444 29.9946 59.8997 29.9946C57.2866 29.9946 55.1226 29.0834 53.4025 27.2664C51.6823 25.4493 50.8222 23.2225 50.8222 20.5913C50.8222 17.9601 51.6987 15.7495 53.4518 13.927C55.2048 12.0992 57.3523 11.188 59.8997 11.188C62.2061 11.188 63.8824 11.7595 64.9178 12.9026V11.6571H69.936V29.5255ZM64.9178 20.5913C64.9178 19.3512 64.4741 18.2998 63.5921 17.4263C62.7101 16.5582 61.6363 16.1215 60.3763 16.1215C59.1163 16.1215 58.0481 16.5582 57.166 17.4263C56.284 18.2944 55.8403 19.3512 55.8403 20.5913C55.8403 21.8314 56.284 22.8828 57.166 23.7563C58.0481 24.6244 59.1218 25.0611 60.3763 25.0611C61.6309 25.0611 62.7046 24.6244 63.5921 23.7563C64.4741 22.8882 64.9178 21.8314 64.9178 20.5913Z" fill="#1E1919"/>
<path d="M91.3451 20.5913C91.3451 23.2225 90.485 25.4493 88.7649 27.2664C87.0447 29.0834 84.8807 29.9946 82.2676 29.9946C79.9284 29.9946 78.252 29.4285 77.2495 28.3016V29.5255H72.2314V0H77.2495V12.9026C78.2849 11.7595 79.9557 11.188 82.2676 11.188C84.815 11.188 86.968 12.0992 88.7155 13.927C90.4686 15.7549 91.3451 17.9763 91.3451 20.5913ZM86.327 20.5913C86.327 19.3512 85.8833 18.2998 85.0013 17.4263C84.1193 16.5582 83.0455 16.1215 81.7855 16.1215C80.5255 16.1215 79.4572 16.5582 78.5697 17.4263C77.6823 18.2944 77.244 19.3512 77.244 20.5913C77.244 21.8314 77.6877 22.8828 78.5697 23.7563C79.4517 24.6244 80.5255 25.0611 81.7855 25.0611C83.0455 25.0611 84.1138 24.6244 85.0013 23.7563C85.8833 22.8882 86.327 21.8314 86.327 20.5913Z" fill="#1E1919"/>
<path d="M97.5466 8.37348L100.669 7.74264V11.7218H104.46V14.3099H100.669V24.4249C100.669 25.665 100.981 26.4306 101.606 26.7326C102.231 27.0291 103.217 27.1154 104.553 26.9806V29.6981C102.258 29.876 100.521 29.5956 99.3325 28.8515C98.1437 28.1129 97.5521 26.6247 97.5521 24.3925V14.3099H94.9718V11.7218H97.5521V8.37348H97.5466Z" fill="#1E1919"/>
<path d="M121.241 11.7217H124.363V29.6656H121.241V27.2447C120.665 28.1505 119.8 28.8245 118.644 29.2666C117.488 29.7088 116.305 29.9406 115.094 29.9622C112.207 29.9622 109.939 29.0564 108.295 27.2447C106.652 25.4331 105.83 23.2224 105.83 20.6128C105.83 18.0032 106.663 15.9004 108.328 14.1103C109.994 12.3202 112.229 11.4252 115.034 11.4252C117.839 11.4252 120.003 12.3202 121.273 14.1103L121.241 11.7217ZM121.241 20.6775C121.241 18.6664 120.6 17.0919 119.312 15.9489C118.025 14.8112 116.579 14.2505 114.968 14.272C113.122 14.2936 111.654 14.9029 110.574 16.0945C109.49 17.2861 108.953 18.7904 108.953 20.6074C108.953 22.4244 109.528 23.9611 110.673 25.2336C111.818 26.506 113.335 27.1207 115.225 27.0722C116.798 27.029 118.195 26.4413 119.411 25.3145C120.633 24.1876 121.241 22.6401 121.241 20.6721V20.6775Z" fill="#1E1919"/>
<path d="M130.854 6.4486V29.6657H127.732V6.4486H130.854Z" fill="#1E1919"/>
<path d="M151.459 19.9173C151.524 20.4457 151.502 20.9687 151.393 21.4756H136.81C136.81 23.1362 137.418 24.4896 138.639 25.541C139.861 26.5924 141.181 27.1154 142.606 27.1154C143.707 27.1154 144.72 26.862 145.63 26.3551C146.544 25.8483 147.24 25.1042 147.733 24.1337H150.949C150.314 26.0155 149.223 27.4605 147.684 28.4795C146.145 29.4986 144.441 30.0054 142.573 30.0054C140.173 30.0054 138.091 29.1858 136.333 27.5521C134.569 25.9184 133.692 23.6377 133.692 20.7207C133.692 17.8037 134.569 15.5284 136.322 13.9055C138.075 12.2825 140.179 11.4684 142.644 11.4684C144.939 11.4684 146.939 12.207 148.648 13.6898C150.357 15.1725 151.294 17.2484 151.464 19.9281L151.459 19.9173ZM136.936 18.7904H148.177C147.903 17.2861 147.246 16.1646 146.221 15.426C145.191 14.6873 143.997 14.3152 142.638 14.3152C141.28 14.3152 140.036 14.6873 138.979 15.426C137.916 16.1646 137.237 17.2915 136.941 18.7904H136.936Z" fill="#1E1919"/>
<path d="M154.483 11.7218H157.605V13.9432C158.706 12.2825 160.47 11.4576 162.892 11.4576C165.313 11.4576 167.296 12.2178 168.529 13.7275C169.761 15.2426 170.375 17.34 170.375 20.0144V29.6657H167.285V20.0467C167.285 18.192 166.968 16.7793 166.332 15.8196C165.697 14.8598 164.519 14.3638 162.799 14.3422C161.182 14.3206 159.917 14.8329 158.991 15.8843C158.065 16.9357 157.605 18.2782 157.605 19.9119V29.6657H154.483V11.7218Z" fill="#1E1919"/>
<path d="M174.993 8.37339L178.115 7.74255V11.7217H181.906V14.3098H178.115V24.4248C178.115 25.6649 178.428 26.4305 179.052 26.7325C179.677 27.029 180.663 27.1153 182 26.9805V29.698C179.704 29.8759 177.968 29.5955 176.779 28.8515C175.59 28.1128 174.998 26.6246 174.998 24.3924V14.3098H172.418V11.7217H174.998V8.37339H174.993Z" fill="#1E1919"/>
<path d="M17.4378 17.9493C15.6464 20.8932 12.7922 23.5568 12.7922 23.5568C11.8719 24.5057 10.7817 24.9856 9.51618 24.9856C8.2507 24.9856 7.19886 24.5543 6.32234 23.6862C5.44581 22.8235 5.00207 21.7721 5.00207 20.5428C5.00207 19.3134 5.44033 18.262 6.32234 17.3993C7.20434 16.5367 8.26713 16.0999 9.51618 16.0999C10.7652 16.0999 11.8773 16.569 12.7922 17.5018L16.3586 14.0187C14.4083 12.1316 12.1293 11.188 9.51618 11.188C6.90304 11.188 4.64598 12.0992 2.79431 13.9216C0.931691 15.7495 0.00585938 17.9547 0.00585938 20.5428C0.00585938 23.1308 0.931691 25.3361 2.78336 27.1585C4.63502 28.9809 6.87564 29.8922 9.50523 29.8922C12.1348 29.8922 14.4083 28.9486 16.3257 27.0615C19.3114 24.2415 21.2124 20.5374 21.2124 20.5374L17.4323 17.9439L17.4378 17.9493Z" fill="#1E1919"/>
</g>
<defs>
<clipPath id="clip0_1_9614">
<rect width="182" height="30" fill="white"/>
</clipPath>
</defs>
</svg>
